<?xml version="1.0" standalone="no"?>
<!DOCTYPE svg PUBLIC "-//W3C//DTD SVG 20010904//EN" "http://www.w3.org/TR/2001/REC-SVG-20010904/DTD/svg10.dtd">
<svg version="1.0" xmlns="http://www.w3.org/2000/svg" width="1024.000000pt" height="1024.000000pt"
    viewBox="0 0 1024.000000 1024.000000" preserveAspectRatio="xMidYMid meet">

    <g transform="translate(0.000000,1024.000000) scale(0.100000,-0.100000)" fill="#000000" stroke="none">
        <path d="M6327 9249 c-136 -33 -241 -95 -343 -201 -88 -91 -120 -136 -164
-230 -115 -247 -84 -518 86 -740 86 -112 259 -216 421 -254 92 -21 266 -15
344 12 149 53 322 188 401 314 41 65 81 163 98 241 20 92 8 287 -24 385 -42
130 -133 253 -272 368 -53 43 -177 96 -261 111 -105 19 -192 17 -286 -6z m261
-144 c98 -23 164 -60 245 -135 183 -171 237 -445 131 -669 -46 -99 -170 -224
-264 -268 -123 -57 -223 -64 -392 -26 -133 29 -275 148 -343 287 -45 90 -58
165 -53 291 4 83 10 114 38 184 29 75 42 93 115 165 85 84 201 156 281 175 61
14 173 12 242 -4z" />
        <path d="M4330 8309 c-75 -11 -210 -54 -296 -95 -119 -56 -266 -176 -538 -439
-293 -283 -430 -430 -464 -498 -39 -78 -56 -181 -42 -258 24 -139 85 -224 207
-285 74 -38 80 -39 177 -39 95 0 106 2 171 34 60 30 102 67 330 292 260 259
420 394 499 424 39 15 48 15 110 1 37 -9 115 -25 174 -36 59 -11 137 -26 174
-34 36 -8 124 -24 195 -35 70 -12 165 -28 210 -37 107 -21 116 -18 107 43 -4
27 -7 56 -6 65 1 23 -68 44 -313 93 -71 14 -184 41 -250 59 -66 19 -164 44
-217 55 -204 44 -239 31 -460 -164 -90 -79 -253 -234 -363 -345 -110 -111
-219 -213 -241 -226 -52 -30 -125 -40 -184 -24 -100 26 -192 176 -175 283 18
106 78 179 380 464 441 414 566 501 790 548 116 24 199 14 560 -69 83 -19 193
-42 245 -51 135 -24 419 -99 527 -141 150 -57 235 -130 343 -291 106 -159 138
-269 125 -437 -11 -144 -42 -227 -151 -407 -74 -123 -126 -192 -490 -642 -65
-82 -127 -164 -138 -184 -18 -34 -18 -35 0 -53 11 -10 69 -38 129 -63 61 -25
160 -66 220 -92 61 -26 178 -75 260 -110 423 -177 510 -234 610 -400 56 -94
75 -169 75 -299 0 -184 -27 -254 -168 -435 -102 -131 -169 -207 -363 -411 -91
-96 -190 -202 -220 -235 -293 -324 -337 -359 -456 -358 -104 1 -173 48 -230
157 -24 46 -28 135 -9 194 15 45 48 82 288 324 351 354 498 519 577 649 39 63
23 156 -34 193 -32 21 -449 160 -799 266 -385 117 -426 136 -543 258 -95 99
-145 178 -175 277 -19 60 -22 94 -22 230 l0 160 48 88 c26 48 44 87 40 87 -5
0 2 7 14 16 12 8 22 20 22 25 0 6 23 36 50 68 28 32 50 65 50 73 0 9 14 29 30
45 17 15 30 36 30 45 0 9 5 20 11 23 5 4 14 18 19 31 5 13 15 23 22 22 8 -2
13 8 13 27 1 20 6 31 18 33 9 2 15 8 12 13 -6 9 9 14 30 9 5 -1 7 2 3 5 -4 4
3 16 15 26 19 16 20 20 7 29 -12 9 -12 10 5 8 13 -2 20 3 20 14 0 9 4 20 9 25
5 5 6 2 2 -7 -5 -8 3 -1 18 15 27 31 34 51 14 39 -7 -4 -8 -3 -4 5 4 6 12 9
17 6 5 -4 9 1 9 9 0 9 5 16 10 16 6 0 10 7 10 15 0 8 3 15 8 15 12 0 139 172
147 200 5 16 -6 7 -31 -27 -22 -29 -41 -53 -44 -53 -3 0 -4 18 -2 40 4 34 2
39 -12 34 -12 -5 -15 -2 -10 10 12 30 -19 16 -59 -26 -63 -69 -195 -247 -359
-488 -28 -41 -79 -111 -113 -155 -110 -142 -179 -273 -202 -379 -23 -104 -22
-323 1 -406 41 -152 113 -257 265 -386 105 -91 230 -151 486 -234 121 -39 245
-80 275 -90 30 -10 155 -50 277 -89 122 -40 231 -79 243 -89 l21 -17 -58 -85
c-68 -99 -254 -303 -469 -515 -202 -199 -308 -323 -336 -394 -18 -44 -22 -76
-22 -151 -1 -88 2 -100 33 -162 37 -74 121 -162 186 -196 104 -52 234 -53 343
-1 76 37 180 136 522 499 497 528 626 698 671 884 28 118 30 266 5 351 -40
135 -172 332 -273 410 -53 41 -392 213 -463 235 -25 7 -106 41 -180 76 -74 34
-163 72 -198 85 -35 13 -78 36 -95 50 l-32 27 60 64 c57 61 111 126 200 243
22 29 74 95 116 146 42 52 91 117 109 144 19 28 48 68 66 90 83 103 158 283
176 422 21 162 -23 408 -94 525 -48 79 -182 250 -225 288 -111 98 -226 153
-388 185 -44 9 -120 29 -170 45 -49 16 -146 41 -215 55 -185 38 -345 74 -435
97 -183 46 -284 55 -405 37z" />
        <path d="M7639 7581 c-57 -19 -212 -119 -286 -185 -27 -24 -87 -74 -134 -112
-124 -100 -320 -267 -348 -298 -14 -14 -28 -26 -32 -26 -4 0 -39 23 -76 50
-37 28 -83 60 -101 73 -19 12 -49 34 -67 50 -21 17 -39 25 -51 21 -14 -4 -15
-3 -6 4 11 7 8 14 -14 31 -14 11 -31 21 -36 21 -13 0 -26 -37 -43 -130 -9 -47
-18 -96 -21 -110 -3 -18 -2 -21 5 -10 5 8 12 35 16 59 4 24 14 58 22 75 11 24
13 26 9 7 -7 -34 78 -112 214 -196 164 -102 180 -100 333 37 54 49 164 141
245 205 81 64 181 147 221 185 95 87 156 118 230 118 33 0 73 -8 97 -19 45
-21 108 -80 131 -126 22 -42 19 -133 -7 -193 -29 -67 -153 -186 -345 -332 -82
-63 -197 -151 -255 -195 -159 -124 -267 -193 -329 -213 -75 -23 -251 -22 -341
2 -65 17 -193 81 -327 162 -40 24 -78 41 -85 38 -23 -9 -83 -94 -80 -112 7
-34 40 -56 209 -137 253 -123 295 -137 434 -143 103 -4 124 -2 200 21 91 28
256 128 359 217 30 26 87 70 127 96 151 102 392 292 479 379 115 114 137 163
138 305 1 86 -2 100 -29 154 -42 84 -119 160 -201 198 -56 26 -83 32 -149 35
-44 1 -92 -1 -106 -6z" />
        <path d="M4170 5561 c0 -6 -30 -41 -67 -78 -67 -68 -162 -180 -336 -398 -49
-60 -114 -137 -146 -170 -65 -69 -137 -154 -201 -238 -24 -32 -79 -96 -123
-142 -43 -46 -91 -101 -106 -122 -15 -21 -85 -100 -155 -175 -71 -76 -147
-161 -170 -191 -46 -59 -293 -339 -434 -491 -165 -179 -210 -320 -161 -508 22
-86 168 -233 257 -258 99 -28 169 -32 239 -14 84 21 130 49 212 128 57 55 490
519 681 730 41 45 143 154 225 242 83 87 202 215 265 283 63 69 183 197 266
285 83 89 189 206 234 261 46 55 111 129 145 165 67 70 95 107 95 127 0 16
-63 33 -127 33 -51 0 -53 -1 -102 -57 -27 -32 -118 -137 -201 -233 -169 -194
-269 -305 -410 -455 -137 -145 -543 -580 -686 -735 -27 -30 -86 -93 -130 -140
-43 -47 -126 -139 -184 -205 -141 -162 -226 -244 -274 -266 -53 -24 -139 -24
-192 0 -125 57 -196 263 -136 395 19 42 127 175 196 241 12 11 34 36 50 55 25
31 75 87 227 255 198 219 617 703 704 813 28 35 77 93 109 128 33 35 66 74 74
86 8 13 32 41 52 63 21 22 61 72 89 110 29 39 84 105 124 149 40 43 77 86 82
96 6 9 28 38 51 63 32 37 43 44 53 34 7 -7 2 4 -10 23 -13 20 -33 55 -43 78
-17 38 -36 55 -36 33z" />
        <path d="M4336 5327 c2 -7 26 -31 52 -52 l47 -38 -50 51 c-53 56 -57 59 -49
39z" />
        <path d="M4600 5110 c8 -5 20 -10 25 -10 6 0 3 5 -5 10 -8 5 -19 10 -25 10 -5
0 -3 -5 5 -10z" />
        <path d="M4330 4996 c0 -2 8 -10 18 -17 15 -13 16 -12 3 4 -13 16 -21 21 -21
13z" />
    </g>
</svg>