<?xml version="1.0" standalone="no"?>
<!DOCTYPE svg PUBLIC "-//W3C//DTD SVG 20010904//EN" "http://www.w3.org/TR/2001/REC-SVG-20010904/DTD/svg10.dtd">
<svg version="1.0" xmlns="http://www.w3.org/2000/svg" width="658.000000pt" height="658.000000pt"
    viewBox="0 0 658.000000 658.000000" preserveAspectRatio="xMidYMid meet">

    <g transform="translate(0.000000,658.000000) scale(0.100000,-0.100000)" fill="#7c6011" stroke="none">
        <path d="M3436 6210 c-234 -42 -438 -197 -556 -422 -62 -118 -83 -215 -84
-383 0 -163 12 -214 80 -345 147 -282 389 -431 699 -432 144 0 238 21 365 83
164 80 328 284 388 483 21 69 25 102 26 221 0 102 -5 158 -17 205 -25 94 -97
235 -161 311 -99 120 -259 227 -396 265 -66 18 -275 27 -344 14z m-35 -279
c35 -36 39 -90 9 -139 -22 -36 -60 -56 -127 -67 -34 -5 -45 -3 -62 14 -25 25
-35 62 -27 96 14 55 100 124 154 125 13 0 37 -13 53 -29z m-243 -377 c45 -51
18 -171 -44 -194 -61 -24 -124 30 -124 106 0 104 105 160 168 88z" />
        <path d="M2705 4699 c-44 -5 -156 -17 -250 -28 -93 -11 -219 -25 -279 -31
-188 -18 -238 -51 -363 -244 -85 -130 -145 -216 -379 -539 -66 -93 -136 -199
-155 -235 -30 -60 -34 -76 -34 -147 0 -92 24 -157 78 -213 56 -58 101 -76 197
-77 76 0 90 3 133 28 70 41 90 67 274 349 93 141 195 295 228 343 64 93 113
166 117 177 2 3 100 18 218 32 118 15 260 33 315 41 55 7 102 12 104 9 6 -6
-21 -102 -157 -549 -77 -255 -148 -524 -157 -595 -8 -65 13 -165 51 -245 35
-76 151 -189 247 -244 72 -40 287 -113 457 -155 78 -20 454 -124 525 -146 33
-11 100 -31 148 -45 49 -15 91 -33 93 -40 9 -22 -166 -411 -376 -840 -125
-254 -147 -322 -136 -408 15 -113 105 -225 204 -253 127 -37 271 2 355 96 41
46 126 214 167 330 13 36 27 70 31 75 10 14 109 241 210 484 21 51 43 99 47
105 5 6 19 38 32 71 13 33 43 100 67 148 64 130 81 176 92 263 13 95 2 185
-30 251 -34 70 -137 173 -211 210 -67 34 -396 167 -588 238 -63 23 -167 63
-232 89 -64 25 -121 46 -127 46 -6 0 -11 9 -11 20 0 20 85 321 140 493 117
372 145 516 128 657 -12 103 -52 234 -79 261 -17 17 -22 18 -52 5 -75 -31
-221 -58 -283 -53 -109 10 -263 83 -374 178 -111 94 -123 99 -219 98 -47 -1
-122 -5 -166 -10z" />
        <path d="M5258 4676 c-54 -19 -112 -56 -228 -143 -167 -125 -516 -363 -534
-363 -20 0 -191 87 -361 184 -71 40 -131 73 -131 72 -1 0 5 -30 13 -66 10 -41
16 -120 16 -215 1 -133 -2 -162 -27 -254 -15 -57 -26 -104 -24 -106 2 -1 86
-37 188 -80 101 -43 207 -90 234 -104 42 -22 63 -26 126 -25 84 0 127 18 255
104 38 26 162 105 275 175 293 183 462 298 495 337 87 103 97 256 23 371 -37
58 -87 93 -159 113 -66 17 -113 17 -161 0z" />
        <path d="M2465 2703 c-3 -16 -29 -66 -56 -113 -27 -47 -49 -89 -49 -94 0 -18
-238 -459 -297 -549 -109 -168 -334 -409 -800 -858 -243 -233 -248 -241 -248
-399 0 -88 4 -113 23 -155 27 -59 82 -119 134 -146 89 -46 219 -32 309 33 44
31 523 495 888 858 171 170 323 348 452 528 102 142 131 185 151 218 10 16 38
56 63 89 94 125 96 128 76 146 -10 8 -58 28 -107 44 -118 38 -322 135 -368
176 -49 43 -119 143 -141 202 -10 26 -19 47 -20 47 -2 0 -6 -12 -10 -27z" />
    </g>
</svg>